<svg xmlns="http://www.w3.org/2000/svg" viewBox="0 0 91 91"><path fill="#A400FF" fill-rule="evenodd" d="M22.5332.45508v7.5h45v-7.5h-45zm45 7.5v7.5h7.5v-7.5h-7.5zm7.5 7.5v7.5h7.5v-7.5h-7.5zm7.5 7.5v45h7.5v-45h-7.5zm0 45h-7.5v7.5h7.5v-7.5zm-7.5 7.5h-7.5v7.5h7.5v-7.5zm-7.5 7.5h-45v7.5h45v-7.5zm-45 0v-7.5h-7.5v7.5h7.5zm-7.5-7.5v-7.5h-7.5v7.5h7.5zm-7.5-7.5v-45h-7.5v45h7.5zm0-45h7.5v-7.5h-7.5v7.5zm7.5-7.5h7.5v-7.5h-7.5v7.5zm7.5 7.5v7.5h30v-7.5h-30zm30 7.5v7.5h7.5v-7.5h-7.5zm7.5 7.5v30h7.5v-30h-7.5zm-37.5 0v7.5h22.5v-7.5h-22.5zm22.5 7.5v22.5h7.5v-22.5h-7.5zm-22.5 7.5v15h15v-15h-15z"/></svg>